#!OML:ASF G:\JayActor3\Patient Classification 1\Patient 1\Session 2\male.ASF
:FULLY-SPECIFIED
:DEGREES
720
root -37.5917 16.1035 -2.9766 -483.111 80.9405 229.146
lowerback 8.69228 0.79842 1.37761
upperback 5.2702 1.39107 2.59186
thorax 0.550839 0.783512 1.78933
lowerneck -5.60309 -2.29425 0.603205
upperneck 6.27137 -3.3306 3.31577
head 3.04099 -1.50273 0.82462
rclavicle -4.22417e-015 -1.64991e-014
rhumerus -19.3405 19.5384 -82.8812
rradius 38.5298
rwrist -3.13972
rhand -17.2668 2.37381
rfingers 7.12502
rthumb 8.97792 -27.4152
lclavicle -4.22417e-015 -1.64991e-014
lhumerus -31.5987 -11.0072 89.3289
lradius 32.4892
lwrist 14.505
lhand -28.9435 22.8974
lfingers 7.12502
lthumb -2.29714 52.8648
rfemur -13.5143 -6.68203 22.7895
rtibia 39.0469
rfoot -34.5155 -6.52634
rtoes 0.0473999
lfemur -39.9186 2.97798 -15.8633
ltibia 67.3229
lfoot -17.9715 -7.74552
ltoes -29.9684
721
root -37.5285 16.0788 -2.92305 -485.91 80.4056 226.291
lowerback 9.09384 0.855494 1.43486
upperback 5.28884 1.49473 2.74868
thorax 0.345381 0.838786 1.90351
lowerneck -5.56095 -2.44156 0.506708
upperneck 5.64976 -3.51552 3.51614
head 2.83162 -1.60163 0.899308
rclavicle 9.85227e-015 1.12313e-014
rhumerus -17.8877 20.3879 -82.737
rradius 38.9844
rwrist -3.1146
rhand -17.1845 2.53214
rfingers 7.12502
rthumb 9.05731 -27.2534
lclavicle 9.85227e-015 1.12313e-014
lhumerus -32.7388 -11.8704 89.4984
lradius 31.9168
lwrist 14.5266
lhand -27.9182 23.0124
lfingers 7.12502
lthumb -1.30694 52.9882
rfemur -13.3897 -7.44769 23.1353
rtibia 39.2995
rfoot -34.6918 -6.43601
rtoes -0.00425566
lfemur -41.2182 3.81652 -16.518
ltibia 67.5187
lfoot -18.3014 -5.03502
ltoes -31.0551
722
root -37.4603 16.0562 -2.87059 -488.577 79.8958 223.577
lowerback 9.4861 0.917478 1.41876
upperback 5.31729 1.59978 2.89708
thorax 0.153462 0.893473 2.04959
lowerneck -5.52264 -2.58892 0.394189
upperneck 5.01487 -3.69653 3.72072
head 2.6215 -1.69915 0.978486
rclavicle -7.42336e-015 -3.76448e-015
rhumerus -16.432 21.3386 -82.5682
rradius 39.5468
rwrist -3.1258
rhand -17.1122 2.68594
rfingers 7.12502
rthumb 9.12711 -27.0966
lclavicle -7.42336e-015 -3.76448e-015
lhumerus -34.0318 -13.0627 89.8119
lradius 31.5958
lwrist 14.7413
lhand -26.8732 23.0944
lfingers 7.12502
lthumb -0.297595 53.0739
rfemur -13.2083 -8.14345 23.4225
rtibia 39.5021
rfoot -34.8829 -6.3877
rtoes 0.0285673
lfemur -42.4182 4.5741 -17.2499
ltibia 67.493
lfoot -18.4858 -2.26103
ltoes -31.5199
723
root -37.3872 16.0353 -2.81961 -491.122 79.3955 220.985
lowerback 9.84655 0.98421 1.34403
upperback 5.35841 1.70549 3.04205
thorax -0.00969053 0.947617 2.22515
lowerneck -5.49868 -2.73769 0.272586
upperneck 4.3781 -3.87616 3.92283
head 2.41612 -1.79617 1.05857
rclavicle -4.05272e-014 1.54058e-015
rhumerus -14.9588 22.3753 -82.3505
rradius 40.2175
rwrist -3.22245
rhand -17.1083 2.86408
rfingers 7.12502
rthumb 9.13082 -26.9183
lclavicle -4.05272e-014 1.54058e-015
lhumerus -35.4612 -14.5099 90.2632
lradius 31.4998
lwrist 15.1286
lhand -25.8443 23.1221
lfingers 7.12502
lthumb 0.696122 53.1007
rfemur -12.977 -8.75621 23.672
rtibia 39.647
rfoot -35.0915 -6.39827
rtoes 0.165838
lfemur -43.5276 5.22979 -18.0236
ltibia 67.259
lfoot -18.6053 0.375904
ltoes -31.3689
724
root -37.3101 16.0142 -2.77001 -493.534 78.8786 218.518
lowerback 10.1836 1.05177 1.24324
upperback 5.40055 1.80902 3.18307
thorax -0.160009 1.00035 2.41139
lowerneck -5.49669 -2.88733 0.157204
upperneck 3.76067 -4.05559 4.1216
head 2.22336 -1.89241 1.13652
rclavicle 9.14409e-015 1.00386e-014
rhumerus -13.4734 23.476 -82.0829
rradius 40.9876
rwrist -3.41498
rhand -17.0512 2.98001
rfingers 7.12502
rthumb 9.18595 -26.7999
lclavicle 9.14409e-015 1.00386e-014
lhumerus -37.0266 -16.1269 90.8278
lradius 31.6058
lwrist 15.6261
lhand -24.8699 23.1915
lfingers 7.12502
lthumb 1.63718 53.165
rfemur -12.714 -9.28241 23.9166
rtibia 39.7426
rfoot -35.3245 -6.48919
rtoes 0.40152
lfemur -44.5521 5.7638 -18.7965
ltibia 66.8422
lfoot -18.7235 2.75411
ltoes -30.7553
725
root -37.2281 15.9929 -2.72272 -495.757 78.3387 216.231
lowerback 10.4726 1.12306 1.13899
upperback 5.4455 1.91502 3.3194
thorax -0.281814 1.05436 2.59503
lowerneck -5.51045 -3.03668 0.0525763
upperneck 3.16856 -4.23392 4.32032
head 2.04362 -1.98718 1.21273
rclavicle 1.98785e-014 -1.27222e-014
rhumerus -11.9746 24.6319 -81.7529
rradius 41.8518
rwrist -3.70698
rhand -16.9606 3.04853
rfingers 7.12502
rthumb 9.27336 -26.7275
lclavicle 1.98785e-014 -1.27222e-014
lhumerus -38.7134 -17.8331 91.4757
lradius 31.8813
lwrist 16.1731
lhand -23.9649 23.4177
lfingers 7.12502
lthumb 2.5113 53.3826
rfemur -12.4254 -9.73222 24.1685
rtibia 39.7981
rfoot -35.5791 -6.65068
rtoes 0.722659
lfemur -45.4948 6.16407 -19.5322
ltibia 66.2869
lfoot -18.8966 4.72043
ltoes -29.6025
726
root -37.1422 15.9701 -2.67773 -497.732 77.7488 214.178
lowerback 10.7194 1.1846 1.0611
upperback 5.49135 2.00932 3.46218
thorax -0.379126 1.10313 2.7724
lowerneck -5.55562 -3.18093 -0.0497
upperneck 2.61066 -4.40486 4.51915
head 1.88234 -2.07714 1.28869
rclavicle 3.8763e-014 1.49089e-014
rhumerus -10.4421 25.8774 -81.3425
rradius 42.7824
rwrist -4.03805
rhand -16.8675 3.10303
rfingers 7.12502
rthumb 9.36319 -26.669
lclavicle 3.8763e-014 1.49089e-014
lhumerus -40.4839 -19.5092 92.1587
lradius 32.2829
lwrist 16.7105
lhand -23.1321 23.8419
lfingers 7.12502
lthumb 3.31549 53.7958
rfemur -12.1289 -10.1151 24.4639
rtibia 39.821
rfoot -35.8528 -6.88277
rtoes 1.10284
lfemur -46.3805 6.41314 -20.182
ltibia 65.6379
lfoot -19.1881 6.21756
ltoes -27.9104
727
root -37.0519 15.9461 -2.63567 -499.387 77.1087 212.433
lowerback 10.9169 1.2407 1.03749
upperback 5.53416 2.10015 3.60842
thorax -0.451548 1.15116 2.92405
lowerneck -5.60776 -3.32496 -0.141475
upperneck 2.07936 -4.57505 4.72231
head 1.73231 -2.1658 1.36443
rclavicle 1.70955e-014 -2.40529e-014
rhumerus -8.88649 27.1932 -80.8451
rradius 43.7871
rwrist -4.40964
rhand -16.6526 3.10936
rfingers 7.12502
rthumb 9.57053 -26.6533
lclavicle 1.70955e-014 -2.40529e-014
lhumerus -42.3168 -21.1081 92.8368
lradius 32.7698
lwrist 17.2087
lhand -22.4065 24.3706
lfingers 7.12502
lthumb 4.01624 54.3125
rfemur -11.8231 -10.448 24.8141
rtibia 39.811
rfoot -36.1379 -7.15272
rtoes 1.49177
lfemur -47.2165 6.5244 -20.715
ltibia 64.9535
lfoot -19.6697 7.17596
ltoes -25.4463
728
root -36.9567 15.9214 -2.59702 -500.721 76.4169 211.007
lowerback 11.0626 1.28919 1.07752
upperback 5.57866 2.18617 3.76358
thorax -0.492306 1.19801 3.0508
lowerneck -5.65903 -3.46901 -0.23085
upperneck 1.56633 -4.74405 4.93345
head 1.58956 -2.25326 1.44268
rclavicle 6.85807e-015 6.36111e-015
rhumerus -7.30309 28.58 -80.2403
rradius 44.8661
rwrist -4.7882
rhand -16.379 3.09605
rfingers 7.12502
rthumb 9.83453 -26.6543
lclavicle 6.85807e-015 6.36111e-015
lhumerus -44.1727 -22.5814 93.475
lradius 33.2985
lwrist 17.6434
lhand -21.7676 24.9226
lfingers 7.12502
lthumb 4.63318 54.8519
rfemur -11.4947 -10.7557 25.2214
rtibia 39.7634
rfoot -36.423 -7.44147
rtoes 1.80918
lfemur -48.0346 6.52351 -21.1378
ltibia 64.2331
lfoot -20.1592 7.9506
ltoes -23.2756
729
root -36.8572 15.8949 -2.56175 -501.764 75.6881 209.875
lowerback 11.1734 1.33357 1.17433
upperback 5.62181 2.27217 3.92727
thorax -0.514127 1.24599 3.15524
lowerneck -5.69081 -3.61563 -0.318304
upperneck 1.05836 -4.91446 5.15053
head 1.44645 -2.34146 1.52315
rclavicle -4.55217e-014 -1.74931e-014
rhumerus -5.6935 30.0241 -79.5135
rradius 46.0296
rwrist -5.19168
rhand -16.0925 3.08597
rfingers 7.12502
rthumb 10.111 -26.6511
lclavicle -4.55217e-014 -1.74931e-014
lhumerus -46.0309 -23.9202 94.0547
lradius 33.8424
lwrist 18.0349
lhand -21.2223 25.3138
lfingers 7.12502
lthumb 5.15974 55.231
rfemur -11.141 -11.0482 25.6769
rtibia 39.6804
rfoot -36.7008 -7.72794
rtoes 2.06059
lfemur -48.8308 6.44997 -21.4548
ltibia 63.5041
lfoot -20.6135 8.57831
ltoes -21.5279
730
root -36.753 15.8675 -2.53044 -502.599 74.9436 208.966
lowerback 11.2569 1.3778 1.31497
upperback 5.66613 2.36215 4.09294
thorax -0.51864 1.29694 3.23729
lowerneck -5.70689 -3.76848 -0.406123
upperneck 0.560364 -5.09136 5.37135
head 1.30534 -2.43295 1.60539
rclavicle 2.78299e-015 -3.97569e-015
rhumerus -4.06638 31.5017 -78.6601
rradius 47.2861
rwrist -5.62535
rhand -15.7533 3.06128
rfingers 7.12502
rthumb 10.4381 -26.6596
lclavicle 2.78299e-015 -3.97569e-015
lhumerus -47.8786 -25.1366 94.5638
lradius 34.3913
lwrist 18.4025
lhand -20.7288 25.341
lfingers 7.12502
lthumb 5.63617 55.246
rfemur -10.7468 -11.3447 26.1516
rtibia 39.5639
rfoot -36.9701 -8.00622
rtoes 2.21148
lfemur -49.6045 6.32145 -21.6985
ltibia 62.7642
lfoot -20.872 9.28297
ltoes -20.8348
